<?xml version="1.0"?>
<svg xmlns="http://www.w3.org/2000/svg" id="Layer_1" enable-background="new 0 0 512.02 512.02" height="512px" viewBox="0 0 512.02 512.02" width="512px" class=""><g><path d="m423.336 385.713c6.347 3.294 13.288 4.917 20.205 4.917 12.554 0 25.025-5.336 33.707-15.682 7.548-8.994 11.14-20.389 10.116-32.085-1.023-11.696-6.54-22.293-15.534-29.84l-48.494-40.692v-272.331h-347.512c-28.309 0-51.34 23.031-51.34 51.34v409.34c0 28.309 23.031 51.34 51.34 51.34h347.512zm-91.871-114.876c6.817-6.351 12.849-13.535 17.925-21.393l60.419 50.698-17.94 21.38zm-76.503.16c-45.398 0-82.333-36.934-82.333-82.333s36.935-82.333 82.333-82.333 82.332 36.935 82.332 82.333-36.934 82.333-82.332 82.333zm-179.138-240.997h10.763v379.34h-10.763c-7.612 0-14.836 1.678-21.34 4.664v-362.664c.001-11.767 9.574-21.34 21.34-21.34zm317.512 452.02h-317.512c-11.767 0-21.34-9.573-21.34-21.34s9.573-21.34 21.34-21.34h317.512zm-276.749-72.68v-379.34h276.749v217.158l-30.869-25.903c3.134-10.32 4.827-21.261 4.827-32.591 0-61.94-50.392-112.333-112.332-112.333s-112.333 50.393-112.333 112.333 50.393 112.333 112.333 112.333c18.391 0 35.764-4.443 51.103-12.311l87.271 73.23v47.424zm337.681-53.676c-4.945 5.895-13.766 6.667-19.661 1.72l-19.758-16.579 17.94-21.38 19.758 16.579c2.855 2.396 4.606 5.761 4.932 9.474.325 3.713-.816 7.331-3.211 10.186z" data-original="#000000" class="active-path" data-old_color="#000000" fill="#FFFFFF"/></g> </svg>
